<svg id="Layer_1" data-name="Layer 1" xmlns="http://www.w3.org/2000/svg" viewBox="0 0 608 154.06"><defs><style>.cls-1{fill:#e2e233;}.cls-2{fill:#fff;}.cls-3{font-size:50px;font-family:AdobeMingStd-Light-B5pc-H, Adobe Ming Std;}.cls-4{fill:none;}.cls-5{stroke:#000;stroke-miterlimit:10;stroke-width:2px;}</style></defs><title>Untitled-1</title><path class="cls-1" d="M472.27,394.71a46.57,46.57,0,1,0-23.53-46.12A46.21,46.21,0,0,0,472.27,394.71ZM499.71,314a40.35,40.35,0,1,1-44.79,35.34A40.14,40.14,0,0,1,499.71,314Z" transform="translate(-189 -277.01)"/><path d="M419,341.4a3.16,3.16,0,0,0,1.53,3.24,3.15,3.15,0,0,0,4.6-2.22A70.79,70.79,0,0,1,562.86,334l-7-3.8a3.12,3.12,0,0,0-3,5.45h0L566.48,343a3.12,3.12,0,0,0,2.38.25,3.24,3.24,0,0,0,1.84-1.49l7.38-13.59a3.07,3.07,0,0,0-1.23-4.22,3.12,3.12,0,0,0-4.23,1.24l-3.8,7A77,77,0,0,0,419,341.4Z" transform="translate(-189 -277.01)"/><path d="M515,421.89a70.85,70.85,0,0,1-87.89-47.79l7,3.8a3.11,3.11,0,0,0,3-5.45h0l-13.59-7.39a3.11,3.11,0,0,0-4.22,1.24l-7.38,13.59a3.13,3.13,0,0,0,1.21,4.2l0,0a3.12,3.12,0,0,0,4.22-1.24l3.8-7a77,77,0,0,0,149.77-9.15,3.12,3.12,0,1,0-6.15-1A70.2,70.2,0,0,1,515,421.89Z" transform="translate(-189 -277.01)"/><rect class="cls-2" x="7" y="37.99" width="594" height="77"/><text class="cls-3" transform="translate(8.71 92.54)">LIMITLESS LIFESTYLE</text><line class="cls-4" x1="4" y1="17.99" x2="604" y2="17.99"/><line class="cls-4" y1="118.99" x2="600" y2="118.99"/><line class="cls-5" x1="10" y1="45.99" x2="596" y2="45.99"/><line class="cls-5" x1="10" y1="106.99" x2="596" y2="106.99"/></svg>